<svg xmlns="http://www.w3.org/2000/svg" viewBox="0 0 845.68 31.87"><defs><style>.cls-1{fill:#95deff;}</style></defs><g id="Calque_2" data-name="Calque 2"><g id="Design"><path class="cls-1" d="M759.14,24.79c-28.85-.52-57.69-.77-86.54-1l-86.53-.83-84.69-.45L486.68,4.06l-3-3.8-3.07,3.8-12.13,15L456.35,4,453.24.14,450.12,4,438,19,426,4l-3.17-4-3.18,4-12,15L395.56,4,392.43.13,389.33,4,377.24,19.1l-12.13-15L362,.25l-3,3.81-14.7,18.41-84.68.45-86.54.83c-28.84.27-57.69.5-86.53,1S28.85,25.62,0,26.3c28.85.67,57.69,1.05,86.54,1.52s57.69.76,86.53,1l86.54.83,86.54.45H348l1.17-1.44L362,12.77,374.16,27.9l3.08,3.84,3.09-3.84,12.1-15L404.49,28l3.14,3.92L410.79,28l12-14.94L434.89,28l3.16,3.91L441.18,28l12.06-15,12.1,15,3.1,3.84,3.07-3.84,12.13-15.14,12.91,15.93,1.16,1.44h1.82l86.54-.46,86.53-.82c28.85-.27,57.69-.51,86.54-1s57.69-.84,86.54-1.51C816.83,25.63,788,25.25,759.14,24.79Z"/></g></g></svg>